<svg width="20" height="21" viewBox="0 0 20 21" fill="none" xmlns="http://www.w3.org/2000/svg">
<mask id="mask0_3_10434" style="mask-type:alpha" maskUnits="userSpaceOnUse" x="0" y="0" width="20" height="20">
<path d="M20 0H0V19.9767L7.23624 20V10.4424H20V0Z" fill="#D9D9D9"/>
</mask>
<g mask="url(#mask0_3_10434)">
<path d="M0 13.9655V12.8214H6.032V7.42768H0V6.28356H6.032V-7.62939e-06H7.23886V6.28356H12.2857V-7.62939e-06H13.4926V6.28356H20V7.42768H13.4926V12.8214H17.4971V13.9655H13.4926V19.5227H12.2857V13.9655H7.23886V19.5227H6.032V13.9655H0ZM7.23886 12.8214H12.2857V7.42768H7.23886V12.8214Z" fill="#88898A"/>
</g>
<path d="M19.0855 17.4046C19.0855 17.5919 19.0106 17.7715 18.8773 17.904C18.7439 18.0364 18.563 18.1108 18.3744 18.1108H14.1078L12.6855 19.5233V13.8734C12.6855 13.6861 12.7605 13.5064 12.8938 13.374C13.0272 13.2415 13.2081 13.1671 13.3967 13.1671H18.3744C18.563 13.1671 18.7439 13.2415 18.8773 13.374C19.0106 13.5064 19.0855 13.6861 19.0855 13.8734V17.4046Z" stroke="#88898A" stroke-linecap="round" stroke-linejoin="round"/>
</svg>
