<svg width="18" height="18" viewBox="0 0 18 18" fill="none" xmlns="http://www.w3.org/2000/svg">
<g clip-path="url(#clip0_5_429)">
<path d="M17.0999 8.22922L9.44091 15.6753C8.50263 16.5875 7.23004 17.1 5.90311 17.1C4.57618 17.1 3.30359 16.5875 2.36531 15.6753C1.42702 14.7631 0.899902 13.5259 0.899902 12.2359C0.899902 10.9458 1.42702 9.70859 2.36531 8.79639L9.50759 1.85264C10.1331 1.24343 10.9819 0.900755 11.8673 0.899995C12.7527 0.899235 13.6022 1.24046 14.2288 1.84859C14.8555 2.45673 15.2079 3.28196 15.2087 4.14275C15.2095 5.00355 14.8585 5.82939 14.233 6.4386L7.07404 13.3823C6.76128 13.6864 6.33709 13.8572 5.89478 13.8572C5.45247 13.8572 5.02827 13.6864 4.71551 13.3823C4.40275 13.0783 4.22704 12.6659 4.22704 12.2359C4.22704 11.8058 4.40275 11.3934 4.71551 11.0894L11.7911 4.21854" stroke="white" stroke-linecap="round" stroke-linejoin="round"/>
</g>
<defs>
<clipPath id="clip0_5_429">
<rect width="18" height="18" fill="white"/>
</clipPath>
</defs>
</svg>
