<svg width="20" height="20" viewBox="0 0 20 20" fill="none" xmlns="http://www.w3.org/2000/svg">
<path d="M15.3331 9.5H11.6665M13.4998 7.66667V11.3333M7.08315 10.4167H7.07347M4.33315 8.58334H4.32347M4.9565 4H14.7098C15.6171 4.00021 16.492 4.33676 17.1656 4.94459C17.8391 5.55242 18.2633 6.38837 18.3563 7.29083C18.3618 7.3385 18.3655 7.38342 18.3719 7.43017C18.4462 8.048 18.9998 12.668 18.9998 14.0833C18.9998 14.8127 18.7101 15.5122 18.1944 16.0279C17.6787 16.5436 16.9792 16.8333 16.2498 16.8333C15.3332 16.8333 14.8748 16.375 14.4165 15.9167L13.1203 14.6205C12.7766 14.2767 12.3104 14.0834 11.8242 14.0833H7.84217C7.35598 14.0834 6.88974 14.2767 6.546 14.6205L5.24984 15.9167C4.7915 16.375 4.33317 16.8333 3.4165 16.8333C2.68716 16.8333 1.98768 16.5436 1.47196 16.0279C0.956235 15.5122 0.666504 14.8127 0.666504 14.0833C0.666504 12.6671 1.22017 8.048 1.29442 7.43017C1.30084 7.38433 1.3045 7.3385 1.31 7.29175C1.40278 6.38912 1.82696 5.55295 2.5005 4.94493C3.17405 4.33691 4.04912 4.00023 4.9565 4Z" stroke="#99F9EA" stroke-linecap="round" stroke-linejoin="round"/>
</svg>
