<svg width="20" height="20" viewBox="0 0 20 20" fill="none" xmlns="http://www.w3.org/2000/svg">
<path d="M0.86377 11.984V7.736C0.86377 6.392 1.53577 5.72 2.87977 5.72H6.34777L7.15177 6.344V7.28H2.95177C2.71177 7.28 2.59177 7.4 2.59177 7.64V12.08C2.59177 12.32 2.71177 12.44 2.95177 12.44H5.66377V10.52H4.07977V8.96H7.39177V14H2.87977C1.53577 14 0.86377 13.328 0.86377 11.984Z" fill="#6D6E6E"/>
<path d="M9.11658 14V5.72H10.8446V14H9.11658Z" fill="#6D6E6E"/>
<path d="M12.808 14V5.72H18.472V7.28H14.536V9.32H18.112V10.88H14.536V14H12.808Z" fill="#6D6E6E"/>
</svg>
