<svg width="20" height="20" viewBox="0 0 20 20" fill="none" xmlns="http://www.w3.org/2000/svg">
<path d="M5.2627 10.9736C7.34103 10.9736 9.02637 12.659 9.02637 14.7373C9.02612 16.8154 7.34088 18.5 5.2627 18.5C3.18473 18.4998 1.50025 16.8153 1.5 14.7373C1.5 12.6591 3.18457 10.9739 5.2627 10.9736ZM14.7373 10.9736C16.8154 10.9739 18.5 12.6591 18.5 14.7373C18.4998 16.8153 16.8153 18.4998 14.7373 18.5C12.6591 18.5 10.9739 16.8154 10.9736 14.7373C10.9736 12.659 12.659 10.9736 14.7373 10.9736ZM5.2627 11.8682C3.67872 11.8684 2.39453 13.1533 2.39453 14.7373C2.39478 16.3211 3.67888 17.6052 5.2627 17.6055C6.84673 17.6055 8.13159 16.3213 8.13184 14.7373C8.13184 13.1531 6.84688 11.8682 5.2627 11.8682ZM14.7373 11.8682C13.1531 11.8682 11.8682 13.1531 11.8682 14.7373C11.8684 16.3213 13.1533 17.6055 14.7373 17.6055C16.3211 17.6052 17.6052 16.3211 17.6055 14.7373C17.6055 13.1533 16.3213 11.8684 14.7373 11.8682ZM5.2627 1.5C7.34087 1.5 9.02612 3.18457 9.02637 5.2627C9.02637 7.34103 7.34103 9.02637 5.2627 9.02637C3.18457 9.02612 1.5 7.34087 1.5 5.2627C1.50025 3.18473 3.18473 1.50025 5.2627 1.5ZM14.7373 1.5C16.8153 1.50025 18.4998 3.18473 18.5 5.2627C18.5 7.34088 16.8154 9.02612 14.7373 9.02637C12.659 9.02637 10.9736 7.34103 10.9736 5.2627C10.9739 3.18457 12.6591 1.5 14.7373 1.5ZM5.2627 2.39453C3.67888 2.39478 2.39478 3.67888 2.39453 5.2627C2.39453 6.84672 3.67872 8.13159 5.2627 8.13184C6.84688 8.13184 8.13184 6.84688 8.13184 5.2627C8.13159 3.67872 6.84672 2.39453 5.2627 2.39453ZM14.7373 2.39453C13.1533 2.39453 11.8684 3.67872 11.8682 5.2627C11.8682 6.84688 13.1531 8.13184 14.7373 8.13184C16.3213 8.13159 17.6055 6.84673 17.6055 5.2627C17.6052 3.67888 16.3211 2.39478 14.7373 2.39453Z" stroke="#96999E"/>
</svg>
