<svg width="20" height="20" viewBox="0 0 20 20" fill="none" xmlns="http://www.w3.org/2000/svg">
<path d="M5.2627 10.624C7.53433 10.624 9.37598 12.4657 9.37598 14.7373C9.37573 17.0087 7.53417 18.8496 5.2627 18.8496C2.99143 18.8494 1.15064 17.0086 1.15039 14.7373C1.15039 12.4658 2.99127 10.6243 5.2627 10.624ZM14.7373 10.624C17.0087 10.6243 18.8496 12.4658 18.8496 14.7373C18.8494 17.0086 17.0086 18.8494 14.7373 18.8496C12.4658 18.8496 10.6243 17.0087 10.624 14.7373C10.624 12.4657 12.4657 10.624 14.7373 10.624ZM5.2627 12.2188C3.87202 12.219 2.74512 13.3466 2.74512 14.7373C2.74537 16.1278 3.87218 17.2546 5.2627 17.2549C6.65343 17.2549 7.781 16.128 7.78125 14.7373C7.78125 13.3464 6.65358 12.2188 5.2627 12.2188ZM14.7373 12.2188C13.3464 12.2188 12.2188 13.3464 12.2188 14.7373C12.219 16.128 13.3466 17.2549 14.7373 17.2549C16.1278 17.2546 17.2546 16.1278 17.2549 14.7373C17.2549 13.3466 16.128 12.219 14.7373 12.2188ZM5.2627 1.15039C7.53417 1.15039 9.37573 2.99127 9.37598 5.2627C9.37598 7.53433 7.53433 9.37598 5.2627 9.37598C2.99127 9.37573 1.15039 7.53417 1.15039 5.2627C1.15064 2.99143 2.99143 1.15064 5.2627 1.15039ZM14.7373 1.15039C17.0086 1.15064 18.8494 2.99143 18.8496 5.2627C18.8496 7.53417 17.0087 9.37573 14.7373 9.37598C12.4657 9.37598 10.624 7.53433 10.624 5.2627C10.6243 2.99127 12.4658 1.15039 14.7373 1.15039ZM5.2627 2.74512C3.87218 2.74537 2.74537 3.87218 2.74512 5.2627C2.74512 6.65342 3.87202 7.781 5.2627 7.78125C6.65358 7.78125 7.78125 6.65358 7.78125 5.2627C7.781 3.87202 6.65342 2.74512 5.2627 2.74512ZM14.7373 2.74512C13.3466 2.74512 12.219 3.87202 12.2188 5.2627C12.2188 6.65358 13.3464 7.78125 14.7373 7.78125C16.128 7.781 17.2549 6.65343 17.2549 5.2627C17.2546 3.87218 16.1278 2.74537 14.7373 2.74512Z" fill="#081212" stroke="#99F9EA" stroke-width="0.3"/>
</svg>
