<svg width="20" height="20" viewBox="0 0 20 20" fill="none" xmlns="http://www.w3.org/2000/svg">
<path d="M4.69928 7.39842C4.69928 5.96664 5.26806 4.59349 6.28048 3.58106C7.29291 2.56864 8.66605 1.99986 10.0978 1.99986C11.5296 1.99986 12.9028 2.56864 13.9152 3.58106C14.9276 4.59349 15.4964 5.96664 15.4964 7.39842C15.4964 13.6967 18.1957 15.4963 18.1957 15.4963H2C2 15.4963 4.69928 13.6967 4.69928 7.39842Z" stroke="white" stroke-linecap="round" stroke-linejoin="round"/>
<path d="M8.56836 17.0956C8.71896 17.3695 8.94036 17.5979 9.20943 17.7571C9.4785 17.9162 9.78536 18.0001 10.098 18.0001C10.4105 18.0001 10.7174 17.9162 10.9865 17.7571C11.2555 17.5979 11.4769 17.3695 11.6275 17.0956" stroke="white" stroke-width="1.22519" stroke-linecap="round" stroke-linejoin="round"/>
</svg>
