<svg width="20" height="20" viewBox="0 0 20 20" fill="none" xmlns="http://www.w3.org/2000/svg">
<path fill-rule="evenodd" clip-rule="evenodd" d="M7.74731 9.79433L10.0348 12.8171L7.92253 17.4H0.341797L3.97801 10.3873L4.68821 10.7556L1.65776 16.6H7.41037L9.10761 12.9176L7.10939 10.2771L7.74731 9.79433Z" fill="#96999E"/>
<path fill-rule="evenodd" clip-rule="evenodd" d="M5.82125 5.61429C4.56283 5.61429 3.54268 6.63444 3.54268 7.89286C3.54268 9.15128 4.56283 10.1714 5.82125 10.1714C7.07967 10.1714 8.09982 9.15128 8.09982 7.89286C8.09982 6.63444 7.07967 5.61429 5.82125 5.61429ZM2.74268 7.89286C2.74268 6.19261 4.121 4.81429 5.82125 4.81429C7.5215 4.81429 8.89982 6.19261 8.89982 7.89286C8.89982 9.5931 7.5215 10.9714 5.82125 10.9714C4.121 10.9714 2.74268 9.5931 2.74268 7.89286Z" fill="#96999E"/>
<path fill-rule="evenodd" clip-rule="evenodd" d="M13.9996 3.4C12.5637 3.4 11.3996 4.56406 11.3996 6C11.3996 7.43594 12.5637 8.6 13.9996 8.6C15.4355 8.6 16.5996 7.43594 16.5996 6C16.5996 4.56406 15.4355 3.4 13.9996 3.4ZM10.5996 6C10.5996 4.12223 12.1218 2.6 13.9996 2.6C15.8774 2.6 17.3996 4.12223 17.3996 6C17.3996 7.87777 15.8774 9.4 13.9996 9.4C12.1218 9.4 10.5996 7.87777 10.5996 6Z" fill="#96999E"/>
<path fill-rule="evenodd" clip-rule="evenodd" d="M15.6064 8.26044L19.8401 17.4H8.98193L12.6027 8.28095L13.3463 8.57618L10.1603 16.6H18.5879L14.8805 8.5967L15.6064 8.26044Z" fill="#96999E"/>
</svg>
