<svg width="20" height="20" viewBox="0 0 20 20" fill="none" xmlns="http://www.w3.org/2000/svg">
<path d="M10.3138 1H9.91782C9.44043 1 8.9826 1.18964 8.64503 1.52721C8.30746 1.86477 8.11782 2.32261 8.11782 2.8V2.962C8.1175 3.27765 8.03417 3.58767 7.87621 3.86095C7.71824 4.13424 7.49119 4.36117 7.21782 4.519L6.83082 4.744C6.55719 4.90198 6.24679 4.98515 5.93082 4.98515C5.61486 4.98515 5.30446 4.90198 5.03082 4.744L4.89582 4.672C4.48278 4.43374 3.99208 4.3691 3.53142 4.49228C3.07077 4.61546 2.67782 4.91638 2.43882 5.329L2.24082 5.671C2.00256 6.08404 1.93792 6.57475 2.0611 7.0354C2.18428 7.49605 2.4852 7.889 2.89782 8.128L3.03282 8.218C3.30487 8.37506 3.53108 8.60058 3.68897 8.87215C3.84686 9.14372 3.93093 9.45187 3.93282 9.766V10.225C3.93408 10.5422 3.85151 10.8541 3.69346 11.1291C3.53542 11.4041 3.30751 11.6324 3.03282 11.791L2.89782 11.872C2.4852 12.111 2.18428 12.5039 2.0611 12.9646C1.93792 13.4253 2.00256 13.916 2.24082 14.329L2.43882 14.671C2.67782 15.0836 3.07077 15.3845 3.53142 15.5077C3.99208 15.6309 4.48278 15.5663 4.89582 15.328L5.03082 15.256C5.30446 15.098 5.61486 15.0148 5.93082 15.0148C6.24679 15.0148 6.55719 15.098 6.83082 15.256L7.21782 15.481C7.49119 15.6388 7.71824 15.8658 7.87621 16.139C8.03417 16.4123 8.1175 16.7223 8.11782 17.038V17.2C8.11782 17.6774 8.30746 18.1352 8.64503 18.4728C8.9826 18.8104 9.44043 19 9.91782 19H10.3138C10.7912 19 11.249 18.8104 11.5866 18.4728C11.9242 18.1352 12.1138 17.6774 12.1138 17.2V17.038C12.1141 16.7223 12.1975 16.4123 12.3554 16.139C12.5134 15.8658 12.7405 15.6388 13.0138 15.481L13.4008 15.256C13.6745 15.098 13.9849 15.0148 14.3008 15.0148C14.6168 15.0148 14.9272 15.098 15.2008 15.256L15.3358 15.328C15.7489 15.5663 16.2396 15.6309 16.7002 15.5077C17.1609 15.3845 17.5538 15.0836 17.7928 14.671L17.9908 14.32C18.2291 13.907 18.2937 13.4163 18.1705 12.9556C18.0474 12.4949 17.7464 12.102 17.3338 11.863L17.1988 11.791C16.9241 11.6324 16.6962 11.4041 16.5382 11.1291C16.3801 10.8541 16.2976 10.5422 16.2988 10.225V9.775C16.2976 9.45782 16.3801 9.14594 16.5382 8.87094C16.6962 8.59594 16.9241 8.36759 17.1988 8.209L17.3338 8.128C17.7464 7.889 18.0474 7.49605 18.1705 7.0354C18.2937 6.57475 18.2291 6.08404 17.9908 5.671L17.7928 5.329C17.5538 4.91638 17.1609 4.61546 16.7002 4.49228C16.2396 4.3691 15.7489 4.43374 15.3358 4.672L15.2008 4.744C14.9272 4.90198 14.6168 4.98515 14.3008 4.98515C13.9849 4.98515 13.6745 4.90198 13.4008 4.744L13.0138 4.519C12.7405 4.36117 12.5134 4.13424 12.3554 3.86095C12.1975 3.58767 12.1141 3.27765 12.1138 2.962V2.8C12.1138 2.32261 11.9242 1.86477 11.5866 1.52721C11.249 1.18964 10.7912 1 10.3138 1Z" stroke="#6D6E6E" stroke-linecap="round" stroke-linejoin="round"/>
<path d="M10.116 12.7C11.6072 12.7 12.816 11.4912 12.816 9.99999C12.816 8.50882 11.6072 7.29999 10.116 7.29999C8.62485 7.29999 7.41602 8.50882 7.41602 9.99999C7.41602 11.4912 8.62485 12.7 10.116 12.7Z" stroke="#6D6E6E" stroke-linecap="round" stroke-linejoin="round"/>
</svg>
