<svg width="18" height="18" viewBox="0 0 18 18" fill="none" xmlns="http://www.w3.org/2000/svg">
<path fill-rule="evenodd" clip-rule="evenodd" d="M2.35476 2.35496C2.71009 1.99963 3.19203 1.8 3.69454 1.8H11.6524C11.7529 1.8 11.8493 1.83993 11.9204 1.91099L16.0888 6.07942C16.1599 6.15048 16.1998 6.24687 16.1998 6.34737V14.3053C16.1998 14.8078 16.0002 15.2897 15.6448 15.645C15.2895 16.0004 14.8076 16.2 14.3051 16.2H3.69454C2.65157 16.2 1.7998 15.3482 1.7998 14.3053V3.69474C1.7998 3.19222 1.99943 2.71029 2.35476 2.35496ZM3.69454 2.5579C3.39303 2.5579 3.10387 2.67767 2.89067 2.89087C2.67747 3.10407 2.5577 3.39323 2.5577 3.69474V14.3053C2.5577 14.9297 3.07014 15.4421 3.69454 15.4421H14.3051C14.6066 15.4421 14.8957 15.3223 15.1089 15.1091C15.3221 14.8959 15.4419 14.6068 15.4419 14.3053V6.50434L11.4955 2.5579H3.69454Z" fill="#6D6E6E"/>
<path fill-rule="evenodd" clip-rule="evenodd" d="M11.2735 1.8C11.4828 1.8 11.6524 1.96966 11.6524 2.17895V6.34737H15.8209C16.0301 6.34737 16.1998 6.51703 16.1998 6.72632C16.1998 6.93561 16.0301 7.10527 15.8209 7.10527H11.2735C11.0642 7.10527 10.8945 6.93561 10.8945 6.72632V2.17895C10.8945 1.96966 11.0642 1.8 11.2735 1.8Z" fill="#6D6E6E"/>
<path d="M6.7999 9.81818C6.7999 10.2701 6.4865 10.6364 6.0999 10.6364C5.7133 10.6364 5.3999 10.2701 5.3999 9.81818C5.3999 9.36631 5.7133 9 6.0999 9C6.4865 9 6.7999 9.36631 6.7999 9.81818Z" fill="#D9D9D9"/>
<path d="M11.6999 9.81818C11.6999 10.2701 11.3865 10.6364 10.9999 10.6364C10.6133 10.6364 10.2999 10.2701 10.2999 9.81818C10.2999 9.36631 10.6133 9 10.9999 9C11.3865 9 11.6999 9.36631 11.6999 9.81818Z" fill="#D9D9D9"/>
<path fill-rule="evenodd" clip-rule="evenodd" d="M10.5006 11.9376C10.659 12.0672 10.6975 12.3222 10.5866 12.5073L10.2999 12.2727C10.5866 12.5073 10.5866 12.5073 10.5866 12.5073L10.5859 12.5086L10.5849 12.5102L10.5824 12.5143L10.5751 12.526C10.5692 12.5352 10.5613 12.5474 10.5513 12.562C10.5315 12.5913 10.5034 12.6308 10.4671 12.677C10.3949 12.7691 10.2888 12.8899 10.1495 13.0105C9.87061 13.252 9.44927 13.5 8.8999 13.5C8.3815 13.5 7.96107 13.2481 7.68147 13.0147C7.54016 12.8967 7.42929 12.779 7.35304 12.6898C7.31476 12.6451 7.28477 12.6071 7.2636 12.5791C7.253 12.5651 7.24458 12.5536 7.2384 12.545L7.23081 12.5343L7.22828 12.5307L7.22733 12.5294L7.22676 12.5285C7.22676 12.5285 7.2266 12.5283 7.4999 12.2727L7.22676 12.5285C7.10601 12.3521 7.13032 12.0944 7.28126 11.9533C7.43182 11.8125 7.65135 11.8406 7.77229 12.0158L7.77439 12.0188C7.77683 12.0222 7.78126 12.0283 7.78761 12.0366C7.80035 12.0534 7.82067 12.0793 7.84801 12.1113C7.90302 12.1756 7.98464 12.2624 8.08834 12.3489C8.29874 12.5246 8.5783 12.6818 8.8999 12.6818C9.26054 12.6818 9.53919 12.5207 9.73282 12.3531C9.82971 12.2692 9.90301 12.1855 9.95112 12.1241C9.97504 12.0936 9.99233 12.0692 10.0028 12.0537C10.008 12.046 10.0115 12.0406 10.0133 12.0379L10.0144 12.0361L10.0138 12.0371L10.0133 12.0379C10.1242 11.853 10.3423 11.8081 10.5006 11.9376Z" fill="#6D6E6E"/>
<path fill-rule="evenodd" clip-rule="evenodd" d="M6.0999 10.6364C6.4865 10.6364 6.7999 10.2701 6.7999 9.81818C6.7999 9.36631 6.4865 9 6.0999 9C5.7133 9 5.3999 9.36631 5.3999 9.81818C5.3999 10.2701 5.7133 10.6364 6.0999 10.6364Z" fill="#6D6E6E"/>
<path fill-rule="evenodd" clip-rule="evenodd" d="M10.9999 10.6364C11.3865 10.6364 11.6999 10.2701 11.6999 9.81818C11.6999 9.36631 11.3865 9 10.9999 9C10.6133 9 10.2999 9.36631 10.2999 9.81818C10.2999 10.2701 10.6133 10.6364 10.9999 10.6364Z" fill="#6D6E6E"/>
</svg>
