<svg width="41" height="29" viewBox="0 0 41 29" fill="none" xmlns="http://www.w3.org/2000/svg">
<path d="M39.7334 4.4557C39.5004 3.5944 39.0458 2.80919 38.4148 2.17829C37.7839 1.54738 36.9986 1.0928 36.1373 0.859827C32.984 0 20.2944 0 20.2944 0C20.2944 0 7.60423 0.026093 4.45144 0.88592C3.59018 1.11893 2.80499 1.57353 2.17409 2.20443C1.54319 2.83534 1.08859 3.62052 0.855575 4.48179C-0.0981868 10.0843 -0.468211 18.6207 0.881669 23.9989C1.11468 24.8601 1.56928 25.6453 2.20018 26.2762C2.83108 26.9071 3.61627 27.3617 4.47754 27.5947C7.63057 28.4546 20.3205 28.4546 20.3205 28.4546C20.3205 28.4546 33.0104 28.4546 36.1634 27.5947C37.0247 27.3617 37.8099 26.9071 38.4408 26.2762C39.0717 25.6453 39.5263 24.8601 39.7593 23.9989C40.765 18.3886 41.0751 9.85745 39.7332 4.45594" fill="#FF0000"/>
<path d="M14.4131 20.2023L24.9403 14.105L14.4131 8.00739V20.2023Z" fill="white"/>
</svg>
